<svg width="25" height="26" viewBox="0 0 25 26" fill="none" xmlns="http://www.w3.org/2000/svg">
<path d="M24.3017 24.7659L22.3279 7.21765C22.295 6.93512 22.0318 6.71538 21.7357 6.71538H18.0842V5.64804C18.0842 2.63439 15.5182 0.185791 12.3601 0.185791C9.202 0.185791 6.63604 2.63439 6.63604 5.64804V6.71538H2.8858C2.58972 6.71538 2.32655 6.93512 2.29365 7.21765L0.319837 24.7659C0.28694 24.9229 0.352734 25.0798 0.451424 25.2054C0.550115 25.331 0.7146 25.3938 0.879084 25.3938H23.7424C23.9069 25.3938 24.0714 25.331 24.1701 25.2054C24.2688 25.0798 24.3346 24.9229 24.3017 24.7659ZM17.492 9.88599C17.7881 9.88599 18.0184 10.1057 18.0184 10.3883C18.0184 10.6708 17.7881 10.8905 17.492 10.8905C17.1959 10.8905 16.9657 10.6708 16.9657 10.3883C16.9657 10.1057 17.1959 9.88599 17.492 9.88599ZM7.82033 5.64804C7.82033 3.26223 9.85994 1.31591 12.3601 1.31591C14.8603 1.31591 16.8999 3.26223 16.8999 5.64804V6.71538H7.82033V5.64804ZM7.22819 9.88599C7.52426 9.88599 7.75454 10.1057 7.75454 10.3883C7.75454 10.6708 7.52426 10.8905 7.22819 10.8905C6.93212 10.8905 6.70184 10.6708 6.70184 10.3883C6.70184 10.1057 6.93212 9.88599 7.22819 9.88599ZM1.56992 24.2322L3.41215 7.8141H6.63604V8.85005C5.9781 9.06979 5.51755 9.66625 5.51755 10.3569C5.51755 11.2359 6.27418 11.9579 7.19529 11.9579C8.1164 11.9579 8.87303 11.2359 8.87303 10.3569C8.87303 9.66625 8.41248 9.06979 7.75454 8.85005V7.8141H16.8341V8.85005C16.1761 9.06979 15.7156 9.66625 15.7156 10.3569C15.7156 11.2359 16.4722 11.9579 17.3933 11.9579C18.3144 11.9579 19.0711 11.2359 19.0711 10.3569C19.0711 9.66625 18.6105 9.06979 17.9526 8.85005V7.8141H21.3081L23.1503 24.2322H1.56992Z" fill="black"/>
</svg>
