<svg width="56" height="44" viewBox="0 0 56 44" fill="none" xmlns="http://www.w3.org/2000/svg">
<path d="M55.7635 37.9762C55.8511 37.876 55.9168 37.7582 55.9565 37.6304C55.9962 37.5025 56.0089 37.3676 55.9938 37.2344L53.1938 12.5098C53.1676 12.278 53.0586 12.0641 52.8876 11.9089C52.7167 11.7536 52.4957 11.6678 52.2667 11.6678H47.6V9.76594C47.6 8.2527 47.01 6.80144 45.9598 5.73142C44.9096 4.66139 43.4852 4.06026 42 4.06026C40.5148 4.06026 39.0904 4.66139 38.0402 5.73142C36.99 6.80144 36.4 8.2527 36.4 9.76594H34.5333V6.9131C34.5333 5.14765 33.845 3.45451 32.6198 2.20615C31.3945 0.957792 29.7327 0.25647 28 0.25647C26.2672 0.25647 24.6055 0.957792 23.3802 2.20615C22.155 3.45451 21.4667 5.14765 21.4667 6.9131V9.76594H19.6C19.6 8.2527 19.01 6.80144 17.9598 5.73142C16.9096 4.66139 15.4852 4.06026 14 4.06026C12.5148 4.06026 11.0904 4.66139 10.0402 5.73142C8.98997 6.80144 8.39998 8.2527 8.39998 9.76594V11.6678H3.7333C3.5043 11.6678 3.28329 11.7536 3.11233 11.9089C2.94138 12.0641 2.8324 12.278 2.80615 12.5098L0.00615182 37.2344C-0.00893199 37.3676 0.00379827 37.5025 0.043507 37.6304C0.0832156 37.7582 0.149005 37.876 0.236558 37.9761C0.324112 38.0762 0.431449 38.1563 0.551528 38.2112C0.671606 38.266 0.80171 38.2944 0.933303 38.2944H12.4415L12.0205 42.9621C12.0086 43.0938 12.0238 43.2265 12.0651 43.3518C12.1065 43.4772 12.173 43.5924 12.2604 43.69C12.3479 43.7877 12.4544 43.8657 12.5731 43.9191C12.6919 43.9725 12.8202 44.0001 12.95 44H42.9333C43.0628 44 43.1908 43.9726 43.3093 43.9195C43.4278 43.8663 43.5341 43.7887 43.6215 43.6914C43.709 43.5942 43.7756 43.4794 43.8172 43.3545C43.8588 43.2296 43.8744 43.0973 43.8631 42.9659L43.4583 38.2944H55.0667C55.1983 38.2944 55.3284 38.266 55.4485 38.2112C55.5686 38.1563 55.676 38.0763 55.7635 37.9762ZM42 5.96215C42.9898 5.96329 43.9387 6.3644 44.6386 7.07751C45.3385 7.79061 45.7322 8.75746 45.7333 9.76594V11.6678H41.1527L41.0631 10.6337C41.0426 10.3968 40.9358 10.1763 40.7637 10.0157C40.5916 9.85505 40.3667 9.76595 40.1333 9.76594H38.2667C38.2678 8.75746 38.6615 7.79061 39.3614 7.07751C40.0613 6.3644 41.0102 5.96329 42 5.96215ZM23.3333 6.9131C23.3333 5.65207 23.825 4.44268 24.7002 3.55099C25.5753 2.65931 26.7623 2.15836 28 2.15836C29.2377 2.15836 30.4247 2.65931 31.2998 3.55099C32.175 4.44268 32.6667 5.65207 32.6667 6.9131V9.76594H23.3333V6.9131ZM10.2666 9.76594C10.2666 8.75712 10.66 7.78961 11.3601 7.07626C12.0602 6.36291 13.0098 5.96215 14 5.96215C14.9901 5.96215 15.9397 6.36291 16.6398 7.07626C17.34 7.78961 17.7333 8.75712 17.7333 9.76594H15.8666C15.6339 9.76593 15.4095 9.85452 15.2376 10.0144C15.0656 10.1742 14.9585 10.3937 14.9372 10.6299L14.8438 11.6678H10.2666V9.76594ZM1.98062 36.3925L4.56514 13.5697H8.39998V15.4716C8.39998 15.7238 8.49831 15.9657 8.67334 16.144C8.84838 16.3224 9.08577 16.4226 9.33331 16.4226C9.58085 16.4226 9.81824 16.3224 9.99328 16.144C10.1683 15.9657 10.2666 15.7238 10.2666 15.4716V13.5697H14.672L12.6132 36.3925H1.98062ZM13.973 42.0982L16.7183 11.6678H21.4667V15.4716C21.4667 15.7238 21.565 15.9657 21.74 16.144C21.9151 16.3224 22.1525 16.4226 22.4 16.4226C22.6475 16.4226 22.8849 16.3224 23.06 16.144C23.235 15.9657 23.3333 15.7238 23.3333 15.4716V11.6678H32.6667V15.4716C32.6667 15.7238 32.765 15.9657 32.94 16.144C33.1151 16.3224 33.3525 16.4226 33.6 16.4226C33.8475 16.4226 34.0849 16.3224 34.26 16.144C34.435 15.9657 34.5333 15.7238 34.5333 15.4716V11.6678H39.2787L41.914 42.0982H13.973ZM43.2938 36.3925L41.3173 13.5697H45.7333V15.4716C45.7333 15.7238 45.8317 15.9657 46.0067 16.144C46.1817 16.3224 46.4191 16.4226 46.6667 16.4226C46.9142 16.4226 47.1516 16.3224 47.3266 16.144C47.5017 15.9657 47.6 15.7238 47.6 15.4716V13.5697H51.4348L54.0194 36.3925H43.2938Z" fill="#424242"/>
</svg>
