<svg width="40" height="40" viewBox="0 0 40 40" fill="none" xmlns="http://www.w3.org/2000/svg">
<path d="M39.5113 37.1547L28.1364 25.7798C30.3398 23.0582 31.6664 19.5998 31.6664 15.8332C31.6664 7.1033 24.5631 0 15.8332 0C7.10323 0 0 7.10322 0 15.8332C0 24.5631 7.1033 31.6664 15.8332 31.6664C19.5998 31.6664 23.0582 30.3398 25.7798 28.1364L37.1547 39.5113C37.4797 39.8363 37.9063 39.9997 38.3331 39.9997C38.7598 39.9997 39.1864 39.8363 39.5114 39.5113C40.163 38.8597 40.163 37.8063 39.5113 37.1547ZM15.8332 28.3331C8.93993 28.3331 3.33333 22.7265 3.33333 15.8332C3.33333 8.93985 8.93993 3.33325 15.8332 3.33325C22.7265 3.33325 28.3331 8.93985 28.3331 15.8332C28.3331 22.7265 22.7265 28.3331 15.8332 28.3331Z" fill="#424242"/>
</svg>
